PathFileType	4	(X/Y/Z)	/Users/itak/Documents/Research/Walk-IL/dataset/trc/00524_00183.trc
DataRate	CameraRate	NumFrames	NumMarkers	Units	OrigDataRate	OrigDataStartFrame	OrigNumFrames
100.000000	100.000000	4	53	mm	100.000000	487	557
Frame#	Time	RPSI			LPSI			L3			STRN			T10			C7			CLAV			RBAK			LBAK			LSHO			LUPA			LAEL			LAOL			LWTS			LWPS			LFRA			LIFD			LHPS			LHTS			RSHO			RUPA			RAEL			RAOL			RWTS			RWPS			RFRA			RIFD			RHTS			RHPS			RBHD			LFHD			RFHD			LBHD			LHIP			RHIP			RASI			LASI			LKNE			LTHI			LANK			LTIP			LTOE			LMT1			LMT5			LHEE			RKNE			RTHI			RANK			RTIP			RTOE			RMT1			RMT5			RHEE			
		X1	Y1	Z1	X2	Y2	Z2	X3	Y3	Z3	X4	Y4	Z4	X5	Y5	Z5	X6	Y6	Z6	X7	Y7	Z7	X8	Y8	Z8	X9	Y9	Z9	X10	Y10	Z10	X11	Y11	Z11	X12	Y12	Z12	X13	Y13	Z13	X14	Y14	Z14	X15	Y15	Z15	X16	Y16	Z16	X17	Y17	Z17	X18	Y18	Z18	X19	Y19	Z19	X20	Y20	Z20	X21	Y21	Z21	X22	Y22	Z22	X23	Y23	Z23	X24	Y24	Z24	X25	Y25	Z25	X26	Y26	Z26	X27	Y27	Z27	X28	Y28	Z28	X29	Y29	Z29	X30	Y30	Z30	X31	Y31	Z31	X32	Y32	Z32	X33	Y33	Z33	X34	Y34	Z34	X35	Y35	Z35	X36	Y36	Z36	X37	Y37	Z37	X38	Y38	Z38	X39	Y39	Z39	X40	Y40	Z40	X41	Y41	Z41	X42	Y42	Z42	X43	Y43	Z43	X44	Y44	Z44	X45	Y45	Z45	X46	Y46	Z46	X47	Y47	Z47	X48	Y48	Z48	X49	Y49	Z49	X50	Y50	Z50	X51	Y51	Z51	X52	Y52	Z52	X53	Y53	Z53	

488	4.87	813.452880859375	958.3799438476562	543.2758178710938	878.6262817382812	954.7725830078125	437.8033752441406	842.4439697265625	1025.504516601562	480.0738525390625	1027.116333007812	1196.441528320312	570.4905395507812	822.805908203125	1126.410766601562	466.4503784179688	852.7305908203125	1359.428588867188	479.0059509277344	992.2685546875	1289.561401367188	550.115478515625	773.63232421875	1237.151977539062	538.0853881835938	871.1906127929688	1302.940673828125	392.0054016113281	988.2622680664062	1349.660888671875	366.2728881835938	1005.26416015625	1220.941040039062	311.502197265625	1025.300170898438	1010.671508789062	298.8305358886719	932.26123046875	1002.393371582031	333.0221862792969	1105.693359375	835.5489501953125	381.7022399902344	1058.361450195312	793.4033813476562	311.9286499023438	1048.038818359375	938.6529541015625	309.8494262695312	1117.47607421875	678.2324829101562	395.783935546875	1082.306762695312	742.1219482421875	329.1138916015625	1128.521728515625	758.692138671875	371.302001953125	834.4573974609375	1358.743286132812	635.9428100585938	797.3193359375	1291.765869140625	684.0670166015625	810.1427612304688	1025.739868164062	742.5180053710938	777.0278930664062	1003.642395019531	688.9505004882812	937.8523559570312	834.8232421875	753.4073486328125	855.7564086914062	806.8473510742188	778.0980834960938	819.1388549804688	972.4358520507812	753.5615234375	953.4202270507812	675.4904174804688	764.794189453125	954.3798217773438	743.780517578125	783.9813842773438	884.6848754882812	734.56884765625	788.2880859375	836.3533325195312	1513.532348632812	549.4693603515625	1015.05908203125	1588.141479492188	498.7282409667969	940.9197998046875	1588.381225585938	602.1510620117188	918.8644409179688	1507.2744140625	413.3231201171875	1037.859741210938	881.4132690429688	382.9319152832031	843.415283203125	867.6185302734375	709.177001953125	961.9487915039062	916.9909057617188	701.0392456054688	1081.176879882812	920.3450927734375	489.0294799804688	1014.983459472656	461.2749633789062	446.3585205078125	1045.938720703125	617.2152099609375	425.6398315429688	894.626953125	41.94486236572266	423.721435546875	979.1196899414062	311.009033203125	433.1958923339844	1044.6982421875	28.29332733154297	568.5433349609375	959.4357299804688	36.00559234619141	561.5708618164062	994.8103637695312	33.87022399902344	466.0458374023438	827.4928588867188	43.73064804077148	459.8397827148438	895.7923583984375	480.8823852539062	708.1035766601562	872.5178833007812	740.7534790039062	732.827880859375	849.9532470703125	43.45672607421875	677.8836059570312	909.9812622070312	335.8704833984375	702.2272338867188	1049.885131835938	32.8739013671875	725.3182983398438	1005.057556152344	37.1063346862793	662.7446899414062	944.9789428710938	37.34494018554688	739.1238403320312	821.5068969726562	34.27935791015625	613.8233032226562	
489	4.88	815.3695068359375	958.4622802734375	545.035888671875	880.5606079101562	954.634033203125	439.5551452636719	844.0618286132812	1025.10595703125	481.6746826171875	1028.469360351562	1196.458618164062	572.0494995117188	823.9384765625	1126.009399414062	467.9232482910156	853.6981811523438	1359.069213867188	480.5762939453125	993.4104614257812	1289.506469726562	551.6478271484375	774.8218994140625	1236.662475585938	539.687744140625	872.2195434570312	1302.631591796875	393.6300354003906	989.1793823242188	1349.537353515625	367.674072265625	1005.43310546875	1220.547973632812	313.1705322265625	1023.511291503906	1010.313415527344	300.3704833984375	930.9740600585938	1002.496520996094	336.2430419921875	1103.818115234375	834.08544921875	381.5214233398438	1054.571166992188	792.542236328125	312.7031555175781	1045.681030273438	937.758056640625	310.8833312988281	1114.182373046875	676.6071166992188	395.303955078125	1078.271850585938	740.8847045898438	329.3090209960938	1125.538818359375	756.9472045898438	370.5867614746094	835.3856811523438	1358.357666015625	637.4760131835938	798.3812866210938	1291.319946289062	685.6314086914062	811.7667846679688	1025.384521484375	744.2279663085938	778.817626953125	1003.125793457031	690.5953979492188	940.0756225585938	834.787109375	755.1226806640625	858.1240844726562	806.5839233398438	780.0101318359375	820.9401245117188	972.1115112304688	755.3111572265625	956.1367797851562	675.4892578125	766.4996337890625	956.9603271484375	743.7882690429688	785.6552734375	887.3216552734375	734.3829956054688	790.096435546875	837.195556640625	1513.530029296875	551.0504760742188	1015.856201171875	1587.863403320312	499.8917236328125	941.8580322265625	1588.271118164062	603.4630126953125	919.4229736328125	1507.01708984375	414.7528686523438	1040.185913085938	881.1599731445312	384.984375	845.2665405273438	867.668701171875	710.8738403320312	963.799072265625	916.9501953125	702.9517822265625	1083.05517578125	920.0978393554688	490.9444274902344	1016.172424316406	461.0574035644531	447.9005126953125	1047.535888671875	616.9446411132812	427.4269714355469	894.6785888671875	42.10477066040039	423.8425598144531	979.8644409179688	310.9151916503906	434.3080139160156	1044.735229492188	28.22176170349121	568.6528930664062	959.4201049804688	35.93716049194336	561.6564331054688	994.7646484375	33.9215087890625	466.1590881347656	827.45166015625	43.84517669677734	460.0313720703125	895.552978515625	480.6494750976562	709.4837036132812	873.7081909179688	740.7606811523438	734.6221313476562	849.8338012695312	43.2155876159668	678.0313110351562	909.57666015625	335.7431945800781	702.7627563476562	1049.83984375	32.86546325683594	725.3764038085938	1004.997375488281	37.15257263183594	662.8157348632812	944.9334106445312	37.17455673217773	739.2198486328125	821.4329223632812	34.06097030639648	613.94580078125	
490	4.89	817.18310546875	958.5259399414062	546.7698974609375	882.3961791992188	954.48095703125	441.2921142578125	845.6538696289062	1024.723510742188	483.2335205078125	1029.800659179688	1196.447387695312	573.6038208007812	825.0836181640625	1125.641479492188	469.3700866699219	854.715576171875	1358.72900390625	482.103515625	994.5556640625	1289.4365234375	553.1751708984375	776.0364379882812	1236.2119140625	541.2203979492188	873.3079833984375	1302.338256835938	395.2149658203125	990.165771484375	1349.407348632812	369.0795288085938	1005.662841796875	1220.159057617188	314.82958984375	1021.779907226562	1009.976806640625	301.8278503417969	929.782470703125	1002.628112792969	339.332763671875	1101.916625976562	832.6620483398438	381.3455810546875	1050.788208007812	791.7366943359375	313.5444030761719	1043.338623046875	936.8797607421875	311.8969116210938	1110.911987304688	675.04931640625	394.9220886230469	1074.254638671875	739.6988525390625	329.5821838378906	1122.546997070312	755.2655029296875	369.93310546875	836.3013916015625	1357.986328125	638.9733276367188	799.4150390625	1290.893798828125	687.1444091796875	813.3079223632812	1025.055297851562	745.9266357421875	780.4964599609375	1002.630004882812	692.2424926757812	942.2150268554688	834.7832641601562	756.853515625	860.4019775390625	806.3517456054688	781.9227905273438	822.6470336914062	971.8042602539062	757.063720703125	958.8024291992188	675.5331420898438	768.266357421875	959.4494018554688	743.8350830078125	787.3734130859375	889.8522338867188	734.228759765625	791.9315185546875	838.0040893554688	1513.444458007812	552.63330078125	1016.550109863281	1587.667236328125	501.078857421875	942.6930541992188	1588.167846679688	604.7964477539062	919.953125	1506.754638671875	416.1927795410156	1042.240234375	880.8729248046875	386.947998046875	847.0222778320312	867.7268676757812	712.54736328125	965.5433349609375	916.9088745117188	704.8522338867188	1084.834350585938	919.8419799804688	492.847412109375	1017.309204101562	460.829833984375	449.4548034667969	1049.088134765625	616.6743774414062	429.2331848144531	894.719970703125	42.25719833374023	423.9925537109375	980.5813598632812	310.8074645996094	435.4326782226562	1044.77392578125	28.15425300598145	568.7559814453125	959.4042358398438	35.87127304077148	561.7451782226562	994.7160034179688	33.99761199951172	466.2991943359375	827.4076538085938	43.94499969482422	460.2316284179688	895.2451782226562	480.4403991699219	710.7897338867188	874.8128662109375	740.7774658203125	736.3974609375	849.741943359375	43.01266098022461	678.1572265625	909.1146240234375	335.6426696777344	703.29443359375	1049.806274414062	32.85472869873047	725.4284057617188	1004.939880371094	37.18571090698242	662.8827514648438	944.8955078125	37.0351448059082	739.3040161132812	821.357666015625	33.87595748901367	614.0527954101562	
491	4.9	818.8938598632812	958.5616455078125	548.482177734375	884.1275024414062	954.3147583007812	443.0201416015625	847.2086181640625	1024.361694335938	484.7696838378906	1031.103393554688	1196.406860351562	575.1535034179688	826.2455444335938	1125.303955078125	470.8057556152344	855.7734375	1358.409301757812	483.5905151367188	995.7017211914062	1289.350708007812	554.69482421875	777.2677612304688	1235.798828125	542.693359375	874.4468994140625	1302.063354492188	396.7576904296875	991.21435546875	1349.263671875	370.4878540039062	1005.962158203125	1219.779541015625	316.4588317871094	1020.150939941406	1009.659484863281	303.1872863769531	928.72412109375	1002.781311035156	342.2375183105469	1099.998779296875	831.2717895507812	381.1993713378906	1047.057495117188	790.9772338867188	314.4583129882812	1041.056884765625	936.0162963867188	312.8865966796875	1107.653564453125	673.55322265625	394.6877746582031	1070.284423828125	738.5574340820312	329.9757995605469	1119.5634765625	753.6392211914062	369.39599609375	837.2093505859375	1357.6328125	640.4374389648438	800.4242553710938	1290.4921875	688.6089477539062	814.760009765625	1024.750244140625	747.6091918945312	782.0590209960938	1002.160339355469	693.8878784179688	944.2633056640625	834.8097534179688	758.607421875	862.5758056640625	806.1483764648438	783.8192749023438	824.2537231445312	971.5132446289062	758.811767578125	961.3989868164062	675.6187744140625	770.0929565429688	961.8277587890625	743.9163208007812	789.1433715820312	892.2555541992188	734.1002807617188	793.7819213867188	838.77587890625	1513.270385742188	554.209716796875	1017.146606445312	1587.5517578125	502.2941284179688	943.4300537109375	1588.072998046875	606.1469116210938	920.468017578125	1506.48486328125	417.6394958496094	1044.045776367188	880.55810546875	388.8316345214844	848.6814575195312	867.7841186523438	714.20166015625	967.18359375	916.8623657226562	706.7335815429688	1086.513671875	919.5823364257812	494.7334289550781	1018.3818359375	460.5932312011719	451.0125732421875	1050.574951171875	616.402099609375	431.0489196777344	894.7489624023438	42.40884017944336	424.1721801757812	981.26123046875	310.6925354003906	436.5635070800781	1044.813110351562	28.09179496765137	568.851806640625	959.3869018554688	35.80636978149414	561.8387451171875	994.6677856445312	34.10620880126953	466.4740905761719	827.361328125	44.03074264526367	460.4381713867188	894.8604125976562	480.2493286132812	712.0186767578125	875.868408203125	740.8024291992188	738.1412353515625	849.67529296875	42.84624099731445	678.2568359375	908.5780029296875	335.5574645996094	703.8262939453125	1049.78076171875	32.84220504760742	725.475341796875	1004.885620117188	37.20607757568359	662.9441528320312	944.8638305664062	36.92471313476562	739.3759155273438	821.2889404296875	33.71532821655273	614.1365356445312	
